<svg xmlns="http://www.w3.org/2000/svg" xmlns:xlink="http://www.w3.org/1999/xlink" width="663.221" height="1938.612" viewBox="0 0 663.221 1938.612">
  <defs>
    <linearGradient id="linear-gradient" x1="0.5" y1="0.051" x2="0.506" y2="1.113" gradientUnits="objectBoundingBox">
      <stop offset="0" stop-color="#ff4680"/>
      <stop offset="1" stop-color="#ff81a9" stop-opacity="0"/>
    </linearGradient>
  </defs>
  <path id="clouds" d="M0,375.368s-7.668-104.087,109.742-128.1,170.779,128.1,170.779,128.1,2.668-48.05,48.032-82.74,88.058-13.342,88.058-13.342-101.4-136.089,0-200.131c133.421-48.032,188.377,9.42,232.074,65.522s38.411,101.037,38.411,101.037S928.947,13.667,1089.211,13.667,1242.175,63.33,1242.175,63.33s81.7-288.375,255.144-186.975,0,344.226,0,344.226,65.109-35.849,170.779,0c61.711,20.936,85.389,181.452,85.389,181.452s62.27-100.812,133.638-74.38S1934.7,517.967,1934.7,517.967L0,513.4Z" transform="translate(145.254 1938.51) rotate(-90)" fill="url(#linear-gradient)"/>
</svg>
