<svg xmlns="http://www.w3.org/2000/svg" xmlns:xlink="http://www.w3.org/1999/xlink" width="1968.623" height="658.505" viewBox="0 0 1968.623 658.505"><defs><linearGradient id="a" x1="0.5" y1="0.051" x2="0.5" y2="0.941" gradientUnits="objectBoundingBox"><stop offset="0" stop-color="#ff4680"/><stop offset="1" stop-color="#ff81a9" stop-opacity="0"/></linearGradient></defs><path d="M0,375.368s-7.668-104.087,109.742-128.1,170.779,128.1,170.779,128.1,2.668-48.05,48.032-82.74,88.058-13.342,88.058-13.342-101.4-136.089,0-200.131c133.421-48.032,232.074,65.522,232.074,65.522S663.756-2.038,768.572-2.038,910.789,138.981,910.789,138.981,923.582,11.248,1062.353-2.038s169.773,67.909,169.773,67.909,91.747-290.915,265.194-189.516,0,344.226,0,344.226,78.78-48.418,170.779,0c83.679,47.54,85.389,181.452,85.389,181.452S1810.828,245.977,1920,279.286s0,234.117,0,234.117H0Z" transform="translate(0.102 145.101)" fill="url(#a)"/></svg>